<?xml version="1.0" encoding="UTF-8" standalone="no"?>
<svg
   viewBox="0 0 128 128"
   version="1.1"
   id="svg8"
   sodipodi:docname="pool.svg"
   inkscape:version="1.2.1 (9c6d41e410, 2022-07-14)"
   xmlns:inkscape="http://www.inkscape.org/namespaces/inkscape"
   xmlns:sodipodi="http://sodipodi.sourceforge.net/DTD/sodipodi-0.dtd"
   xmlns="http://www.w3.org/2000/svg"
   xmlns:svg="http://www.w3.org/2000/svg">
  <defs
     id="defs12">
    <inkscape:path-effect
       effect="fillet_chamfer"
       id="path-effect5030"
       is_visible="true"
       lpeversion="1"
       nodesatellites_param="F,0,0,1,0,6,0,1 @ F,0,0,1,0,6,0,1 @ F,0,0,1,0,6,0,1 @ F,0,0,1,0,6,0,1 @ F,0,0,1,0,6,0,1 @ F,0,0,1,0,6,0,1"
       unit="px"
       method="auto"
       mode="F"
       radius="6"
       chamfer_steps="1"
       flexible="false"
       use_knot_distance="true"
       apply_no_radius="true"
       apply_with_radius="true"
       only_selected="false"
       hide_knots="false" />
    <inkscape:path-effect
       effect="fillet_chamfer"
       id="path-effect5030-9"
       is_visible="true"
       lpeversion="1"
       nodesatellites_param="F,0,0,1,0,6,0,1 @ F,0,0,1,0,6,0,1 @ F,0,0,1,0,6,0,1 @ F,0,0,1,0,6,0,1 @ F,0,0,1,0,6,0,1 @ F,0,0,1,0,6,0,1"
       unit="px"
       method="auto"
       mode="F"
       radius="6"
       chamfer_steps="1"
       flexible="false"
       use_knot_distance="true"
       apply_no_radius="true"
       apply_with_radius="true"
       only_selected="false"
       hide_knots="false" />
    <inkscape:path-effect
       effect="fillet_chamfer"
       id="path-effect5030-4"
       is_visible="true"
       lpeversion="1"
       nodesatellites_param="F,0,0,1,0,6,0,1 @ F,0,0,1,0,6,0,1 @ F,0,0,1,0,6,0,1 @ F,0,0,1,0,6,0,1 @ F,0,0,1,0,6,0,1 @ F,0,0,1,0,6,0,1"
       unit="px"
       method="auto"
       mode="F"
       radius="6"
       chamfer_steps="1"
       flexible="false"
       use_knot_distance="true"
       apply_no_radius="true"
       apply_with_radius="true"
       only_selected="false"
       hide_knots="false" />
    <inkscape:path-effect
       effect="fillet_chamfer"
       id="path-effect5030-9-0"
       is_visible="true"
       lpeversion="1"
       nodesatellites_param="F,0,0,1,0,6,0,1 @ F,0,0,1,0,6,0,1 @ F,0,0,1,0,6,0,1 @ F,0,0,1,0,6,0,1 @ F,0,0,1,0,6,0,1 @ F,0,0,1,0,6,0,1"
       unit="px"
       method="auto"
       mode="F"
       radius="6"
       chamfer_steps="1"
       flexible="false"
       use_knot_distance="true"
       apply_no_radius="true"
       apply_with_radius="true"
       only_selected="false"
       hide_knots="false" />
  </defs>
  <sodipodi:namedview
     id="namedview10"
     pagecolor="#ffffff"
     bordercolor="#666666"
     borderopacity="1.0"
     inkscape:showpageshadow="2"
     inkscape:pageopacity="0.0"
     inkscape:pagecheckerboard="0"
     inkscape:deskcolor="#d1d1d1"
     showgrid="false"
     inkscape:zoom="2"
     inkscape:cx="-21.5"
     inkscape:cy="114.5"
     inkscape:window-width="1845"
     inkscape:window-height="1205"
     inkscape:window-x="3346"
     inkscape:window-y="122"
     inkscape:window-maximized="0"
     inkscape:current-layer="svg8" />
  <g
     id="g1395">
    <path
       id="path349-2-5-6-0-0"
       style="fill:#048ae0;fill-opacity:1;stroke-width:5.5503;stroke-linecap:round;stroke-linejoin:round;paint-order:markers fill stroke;stop-color:#000000"
       d="m 13.322354,29.270789 a 9.5229341,9.5229341 0 0 0 -4.7618601,8.246426 l 8.501e-4,53.034881 a 9.522923,9.522923 0 0 0 1.3980598,4.683809 L 118.18514,32.751754 a 9.522923,9.522923 0 0 0 -3.4828,-3.480186 L 68.773194,2.7534055 a 9.5229341,9.5229341 0 0 0 -9.52254,6.686e-4 z" />
    <path
       id="path349-2-5-6-4"
       style="fill:#0474bb;fill-opacity:1;stroke-width:5.5503;stroke-linecap:round;stroke-linejoin:round;paint-order:markers fill stroke;stop-color:#000000"
       d="m 9.9594079,95.235911 a 9.522923,9.522923 0 0 0 3.3572601,3.55266 L 59.2458,125.30673 a 9.5229341,9.5229341 0 0 0 9.52256,-6.6e-4 l 45.9283,-26.51671 a 9.5229341,9.5229341 0 0 0 4.76184,-8.246434 l -8.2e-4,-53.03488 a 9.522923,9.522923 0 0 0 -1.27254,-4.756285 z" />
  </g>
  <g
     id="g1293"
     transform="matrix(0.46839898,0,0,0.46767517,17.085511,-4.0930412)">
    <path
       style="fill:#ffffff;fill-opacity:1;stroke-width:0.264583"
       d="m 137.17705,105.93435 c -9.26663,-1.15214 -16.93255,-8.226349 -18.88216,-17.424699 -0.49535,-2.33709 -0.48044,-6.458462 0.0325,-8.980936 1.12659,-5.540248 4.73361,-10.79019 9.55754,-13.910771 13.29024,-8.597414 30.98239,-0.84351 33.70141,14.770251 0.45609,2.619032 0.18512,7.476266 -0.54676,9.801156 -2.11554,6.72017 -6.93019,11.976319 -13.17379,14.381819 -3.25756,1.25505 -7.35521,1.77764 -10.68874,1.36318 z"
       id="path310" />
    <path
       style="fill:#ffffff;fill-opacity:1;stroke-width:0.264583"
       d="m 67.377274,141.13057 c -1.9566,-0.37724 -3.36313,-0.98161 -6.45556,-2.77388 -1.61543,-0.93625 -3.83229,-2.12602 -4.92636,-2.64393 l -1.98921,-0.94164 14.29234,-14.29329 14.29233,-14.29329 -6.2177,-6.16005 c -3.41974,-3.388029 -7.27757,-6.948429 -8.57296,-7.911999 -4.98082,-3.70498 -10.75968,-6.084344 -17.53686,-7.220547 -3.09082,-0.518179 -4.32191,-0.85394 -5.81788,-1.586733 -2.21377,-1.084405 -4.03989,-2.934261 -5.08827,-5.154404 -0.62101,-1.31513 -0.68716,-1.761371 -0.68716,-4.635772 0,-3.046159 0.0359,-3.253537 0.85015,-4.907455 1.79096,-3.637957 5.04583,-5.841735 8.90046,-6.02624 3.81224,-0.182473 10.97384,1.03142 16.28612,2.760504 5.60427,1.824119 12.00018,5.455669 16.95806,9.62865 1.86682,1.571274 61.747686,61.155836 61.572136,61.267456 -2.00592,1.27556 -7.56313,4.21774 -8.52318,4.51249 -1.87662,0.57614 -5.97895,0.76849 -8.2435,0.38653 -2.12046,-0.35767 -3.89889,-1.13265 -7.60631,-3.31458 -6.50612,-3.82906 -11.30593,-5.16841 -18.51453,-5.16635 -7.662556,0.002 -12.097726,1.30634 -19.899486,5.85142 -3.7715,2.19718 -5.1644,2.63087 -8.83929,2.7522 -1.67349,0.0553 -3.57849,-0.003 -4.23334,-0.12909 z"
       id="path308" />
    <path
       style="fill:#ffffff;fill-opacity:1;stroke-width:0.264583"
       d="m 66.186654,180.80388 c -4.8701,-0.62423 -8.86865,-2.11546 -14.61521,-5.45064 -4.6618,-2.7056 -5.27663,-2.87994 -10.12333,-2.87044 -4.65016,0.009 -5.27688,0.1734 -9.12813,2.39289 -5.6534,3.25807 -10.30419,5.1397 -12.70373,5.1397 -2.59341,0 -5.54527,-1.92058 -6.91313,-4.49792 -0.73647,-1.38767 -0.71513,-7.08861 0.0322,-8.59896 0.88427,-1.78711 2.44621,-3.07255 5.69458,-4.68649 1.67319,-0.83131 4.17327,-2.17347 5.55572,-2.98257 5.86867,-3.43473 12.10912,-4.90225 19.31458,-4.54208 5.82551,0.2912 10.15715,1.57087 15.47813,4.57261 6.93097,3.91 7.86095,4.19927 12.88127,4.00671 3.87215,-0.14853 5.05421,-0.5324 9.21143,-2.99146 3.69887,-2.18793 4.99254,-2.82191 7.7222,-3.78437 7.94826,-2.80252 18.267316,-2.39451 25.537466,1.00972 1.27974,0.59923 3.66489,1.86612 5.30033,2.81529 4.6618,2.7056 5.27663,2.87994 10.12334,2.87044 4.73378,-0.009 5.27659,-0.15953 9.525,-2.6368 3.83113,-2.23395 5.73622,-3.17092 8.25136,-4.05822 7.92694,-2.7965 18.27259,-2.39429 25.49714,0.99125 1.25756,0.58931 3.73337,1.89205 5.5018,2.89498 1.76843,1.00293 3.79479,2.03873 4.50303,2.30178 1.76524,0.65564 3.91752,2.68238 4.68563,4.41233 0.49354,1.11154 0.61897,1.85656 0.61837,3.67291 -8e-4,2.03163 -0.0932,2.46638 -0.85427,4.01226 -0.97552,1.98156 -2.19472,3.16687 -4.20322,4.08639 -3.60867,1.65211 -6.3993,0.93689 -14.25088,-3.65237 -4.34687,-2.54076 -5.10601,-2.7548 -9.77292,-2.75548 -4.72517,-7.9e-4 -5.75563,0.29402 -10.17385,2.90968 -3.70822,2.19533 -5.00093,2.82928 -7.73481,3.79324 -7.94825,2.80251 -18.26732,2.3945 -25.53746,-1.00973 -1.27974,-0.59923 -3.66489,-1.86612 -5.30034,-2.81529 -4.20939,-2.44304 -5.37578,-2.81936 -9.16012,-2.95541 -4.854096,-0.1745 -6.777146,0.37849 -11.603776,3.33678 -3.86641,2.36978 -7.70747,3.91633 -11.63371,4.68418 -2.59801,0.50809 -9.09918,0.72161 -11.72468,0.38509 z"
       id="path306" />
    <path
       style="fill:#ffffff;fill-opacity:1;stroke-width:0.264583"
       d="m 65.948734,220.46003 c -4.77601,-0.61289 -8.43944,-1.96011 -13.91729,-5.11805 -5.17347,-2.98246 -5.83001,-3.17972 -10.58333,-3.17972 -4.80711,0 -5.50925,0.20798 -10.71563,3.17391 -5.35816,3.0524 -7.6174,3.92675 -10.19909,3.94712 -1.74089,0.0137 -2.22355,-0.0958 -3.7634,-0.85383 -3.14188,-1.54674 -4.69063,-4.17179 -4.69063,-7.95034 0,-1.14089 0.13794,-2.47907 0.30654,-2.97373 0.75924,-2.22751 2.55019,-3.98125 5.24971,-5.14061 0.65484,-0.28123 3.0179,-1.54829 5.25124,-2.81569 6.25351,-3.5488 10.42439,-4.83493 16.70917,-5.15245 7.80079,-0.3941 13.38882,1.0694 20.90955,5.4762 4.58621,2.6873 6.12324,3.1613 10.25118,3.1613 3.90915,0 5.76955,-0.48201 8.85753,-2.29489 8.70771,-5.11207 14.56069,-6.75715 22.555696,-6.33964 5.68398,0.29682 10.28053,1.60654 15.08706,4.29884 5.6302,3.15367 6.40618,3.53488 8.05594,3.95753 1.30912,0.33538 2.50164,0.40871 5.15505,0.31699 4.02932,-0.13928 5.02288,-0.44683 8.88648,-2.75073 7.66464,-4.5705 13.50435,-6.18089 21.1561,-5.83412 7.00595,0.31751 12.37961,2.09912 18.73826,6.21259 0.91995,0.59512 2.38446,1.35634 3.25445,1.69159 2.4169,0.93135 3.91724,2.20121 4.94999,4.18959 0.8671,1.66945 0.8864,1.77682 0.78331,4.35746 -0.0832,2.08313 -0.2317,2.88751 -0.69815,3.78223 -1.99539,3.82745 -6.13675,5.61708 -10.24593,4.42764 -1.8836,-0.54524 -5.17509,-2.15082 -8.60397,-4.19701 -4.09096,-2.4413 -4.9771,-2.68869 -9.63317,-2.68937 -4.72517,-7.9e-4 -5.75563,0.29402 -10.17385,2.90968 -3.70822,2.19533 -5.00093,2.82928 -7.73481,3.79324 -7.94825,2.80251 -18.26732,2.3945 -25.53746,-1.00973 -1.27974,-0.59923 -3.66489,-1.86611 -5.30034,-2.81529 -4.20939,-2.44304 -5.37578,-2.81936 -9.16012,-2.95541 -5.032976,-0.18093 -6.021786,0.11249 -12.075706,3.58339 -5.10544,2.92711 -8.71043,4.19682 -13.62605,4.7992 -2.73693,0.3354 -6.84987,0.33199 -9.49833,-0.008 z"
       id="path302" />
  </g>
</svg>
